<?xml version="1.0" encoding="UTF-8"?>
<svg width="740" height="370" viewBox="0 0 740 370" xmlns="http://www.w3.org/2000/svg" font-family="'Segoe UI', Arial, sans-serif">
  <defs>
    <marker id="a1" viewBox="0 0 10 10" refX="9" refY="5" markerWidth="6" markerHeight="6" orient="auto-start-reverse"><path d="M 0 0 L 10 5 L 0 10 z" fill="#9b9c9d"/></marker>
    <marker id="a2" viewBox="0 0 10 10" refX="9" refY="5" markerWidth="6" markerHeight="6" orient="auto-start-reverse"><path d="M 0 0 L 10 5 L 0 10 z" fill="#e74c3c"/></marker>
    <marker id="a3" viewBox="0 0 10 10" refX="9" refY="5" markerWidth="6" markerHeight="6" orient="auto-start-reverse"><path d="M 0 0 L 10 5 L 0 10 z" fill="#e67e22"/></marker>
  </defs>

  <rect width="740" height="370" fill="#1d1e20"/>

  <!-- Title -->
  <text x="370" y="28" text-anchor="middle" font-size="16" font-weight="bold" fill="#dadadb">Cross-Origin gRPC Request to Starlink</text>

  <!-- LEFT: Attacker -->
  <rect x="30" y="45" width="180" height="130" rx="8" fill="#2e2e33" stroke="#e74c3c" stroke-width="1.5"/>
  <text x="120" y="68" text-anchor="middle" font-size="12" font-weight="bold" fill="#e74c3c">Attacker</text>
  <rect x="92" y="78" width="56" height="36" rx="3" fill="#37383e" stroke="#777" stroke-width="1"/>
  <rect x="97" y="82" width="46" height="26" rx="1.5" fill="#2a2a2e"/>
  <text x="120" y="99" text-anchor="middle" font-size="9" fill="#e74c3c" font-family="monospace">&lt;/&gt;</text>
  <path d="M86 114 L154 114 L150 118 L90 118 Z" fill="#555"/>
  <text x="120" y="138" text-anchor="middle" font-size="9" fill="#9b9c9d">attacker.example.com</text>
  <text x="120" y="152" text-anchor="middle" font-size="9" fill="#616264">1.2.3.4</text>

  <!-- RIGHT: Starlink -->
  <rect x="530" y="45" width="180" height="130" rx="8" fill="#2e2e33" stroke="#9b9c9d" stroke-width="1"/>
  <text x="620" y="68" text-anchor="middle" font-size="12" font-weight="bold" fill="#dadadb">Starlink</text>
  <!-- Dishy -->
  <rect x="575" y="80" width="30" height="20" rx="2.5" fill="#d8d8d8" stroke="#999" stroke-width="0.8"/>
  <rect x="579" y="83" width="22" height="14" rx="1.5" fill="#ececec"/>
  <rect x="588" y="100" width="4" height="12" fill="#aaa" rx="1"/>
  <rect x="583" y="111" width="14" height="3" rx="1" fill="#888"/>
  <text x="590" y="126" text-anchor="middle" font-size="7" fill="#777">Dishy</text>
  <!-- Router Gen 2 -->
  <rect x="635" y="82" width="44" height="13" rx="6.5" fill="#d8d8d8" stroke="#999" stroke-width="0.8"/>
  <circle cx="649" cy="89" r="1.5" fill="#4CAF50"/>
  <circle cx="656" cy="89" r="1.5" fill="#4CAF50"/>
  <circle cx="663" cy="89" r="1.5" fill="#FF9800"/>
  <rect x="654" y="95" width="5" height="16" rx="1.5" fill="#bbb"/>
  <rect x="648" y="111" width="18" height="3" rx="1" fill="#888"/>
  <text x="657" y="126" text-anchor="middle" font-size="7" fill="#777">Router Gen 2</text>
  <text x="620" y="148" text-anchor="middle" font-size="9" fill="#9b9c9d">192.168.1.1:9001</text>
  <text x="620" y="161" text-anchor="middle" font-size="8" fill="#616264">gRPC-Web (No Auth)</text>

  <!-- Request arrow: reaches Starlink but... -->
  <line x1="210" y1="85" x2="520" y2="85" stroke="#9b9c9d" stroke-width="1.2" marker-end="url(#a1)"/>
  <text x="365" y="79" text-anchor="middle" font-size="10" fill="#c4c4c5">POST /SpaceX.API.Device.Device/Handle</text>

  <!-- Header stripped label -->
  <text x="365" y="110" text-anchor="middle" font-size="9" fill="#e67e22" font-family="monospace">Content-Type: grpc-web+proto</text>
  <text x="365" y="126" text-anchor="middle" font-size="10" fill="#e74c3c" font-weight="bold">X  Header triggers CORS Preflight</text>

  <!-- Response arrow blocked -->
  <line x1="520" y1="148" x2="210" y2="148" stroke="#e74c3c" stroke-width="1.2" stroke-dasharray="5,3" marker-end="url(#a2)"/>
  <text x="365" y="166" text-anchor="middle" font-size="10" fill="#e74c3c">X  gRPC command fails - Starlink does not execute</text>

  <!-- ===== Bottom: Why it fails ===== -->
  <rect x="30" y="195" width="680" height="155" rx="8" fill="#2e2e33" stroke="#e67e22" stroke-width="1"/>
  <text x="370" y="220" text-anchor="middle" font-size="12" font-weight="bold" fill="#e67e22">Why?  CORS Preflight blocks the request</text>
  <text x="370" y="242" text-anchor="middle" font-size="10" fill="#c4c4c5"><tspan font-family="monospace" fill="#e67e22">application/grpc-web+proto</tspan> is not a CORS-safelisted Content-Type.</text>
  <text x="370" y="258" text-anchor="middle" font-size="10" fill="#9b9c9d">Browser must send OPTIONS preflight first. Starlink ignores it.</text>

  <!-- Mini flow (centered in box: box is x=30..710, center=370) -->
  <rect x="200" y="275" width="80" height="28" rx="4" fill="#37383e" stroke="#616264" stroke-width="1"/>
  <text x="240" y="293" text-anchor="middle" font-size="10" fill="#c4c4c5">Browser</text>

  <line x1="280" y1="282" x2="450" y2="282" stroke="#e67e22" stroke-width="1.2" marker-end="url(#a3)"/>
  <text x="370" y="276" text-anchor="middle" font-size="9" fill="#e67e22">OPTIONS (Preflight)</text>

  <rect x="460" y="275" width="80" height="28" rx="4" fill="#37383e" stroke="#616264" stroke-width="1"/>
  <text x="500" y="293" text-anchor="middle" font-size="10" fill="#c4c4c5">Starlink</text>

  <line x1="460" y1="296" x2="280" y2="296" stroke="#e74c3c" stroke-width="1.2" stroke-dasharray="4,3" marker-end="url(#a2)"/>
  <text x="370" y="312" text-anchor="middle" font-size="9" fill="#e74c3c" font-weight="bold">X  No Response</text>

  <text x="370" y="340" text-anchor="middle" font-size="10" fill="#e74c3c">Actual gRPC POST is never sent. Request blocked entirely.</text>
</svg>
